HIERARCHY
ROOT hip
{
	OFFSET 0.000000 0.000000 0.000000 
	CHANNELS 6 Xposition Yposition Zposition Xrotation Zrotation Yrotation
	JOINT abdomen
	{
		OFFSET 0.000000 3.402643 0.000000 
		CHANNELS 3 Xrotation Zrotation Yrotation
		JOINT chest
		{
			OFFSET 0.000000 8.438565 -0.680529 
			CHANNELS 3 Xrotation Zrotation Yrotation
			JOINT neck
			{
				OFFSET 0.000000 10.207942 -0.272212 
				CHANNELS 3 Xrotation Zrotation Yrotation
				JOINT head
				{
					OFFSET 0.000000 3.130431 0.000000 
					CHANNELS 3 Xrotation Zrotation Yrotation
					End Site
					{
						OFFSET 0.000000 3.130435 0.000000 
					}
				}
			}
			JOINT lCollar
			{
				OFFSET 3.470700 6.669187 -0.816635 
				CHANNELS 3 Yrotation Zrotation Xrotation
				JOINT lShldr
				{
					OFFSET 3.198488 0.000000 0.000000 
					CHANNELS 3 Zrotation Yrotation Xrotation
					JOINT lForeArm
					{
						OFFSET 10.139888 0.000000 0.000000 
						CHANNELS 3 Yrotation Zrotation Xrotation
						JOINT lHand
						{
							OFFSET 8.370511 0.000000 0.000000 
							CHANNELS 3 Zrotation Yrotation Xrotation
							End Site
							{
								OFFSET 4.083176 0.000000 0.000000 
							}
						}
					}
				}
			}
			JOINT rCollar
			{
				OFFSET -3.470700 6.669187 -0.816635 
				CHANNELS 3 Yrotation Zrotation Xrotation
				JOINT rShldr
				{
					OFFSET -3.198488 0.000000 0.000000 
					CHANNELS 3 Zrotation Yrotation Xrotation
					JOINT rForeArm
					{
						OFFSET -10.139888 0.000000 0.000000 
						CHANNELS 3 Yrotation Zrotation Xrotation
						JOINT rHand
						{
							OFFSET -8.370511 0.000000 0.000000 
							CHANNELS 3 Zrotation Yrotation Xrotation
							End Site
							{
								OFFSET -4.083176 0.000000 0.000000 
							}
						}
					}
				}
			}
		}
	}
	JOINT lThigh
	{
		OFFSET 5.308129 -1.633274 1.361059 
		CHANNELS 3 Xrotation Zrotation Yrotation
		JOINT lShin
		{
			OFFSET -2.041588 -20.007561 0.000000 
			CHANNELS 3 Xrotation Zrotation Yrotation
			JOINT lFoot
			{
				OFFSET 0.000000 -19.190928 -1.224953 
				CHANNELS 3 Xrotation Yrotation Zrotation
				End Site
				{
					OFFSET 0.000000 -2.449906 4.627600 
				}
			}
		}
	}
	JOINT rThigh
	{
		OFFSET -5.308129 -1.633274 1.361059 
		CHANNELS 3 Xrotation Zrotation Yrotation
		JOINT rShin
		{
			OFFSET 2.041588 -20.007561 0.000000 
			CHANNELS 3 Xrotation Zrotation Yrotation
			JOINT rFoot
			{
				OFFSET 0.000000 -19.190928 -1.224953 
				CHANNELS 3 Xrotation Yrotation Zrotation
				End Site
				{
					OFFSET 0.000000 -2.449906 4.627600 
				}
			}
		}
	}
}
MOTION
Frames: 10
Frame Time: 0.016667
-0.057421 48.850838 -0.000916 -7.958443 0.702537 -2.343813 22.187376 -1.816168 0.928197 -17.483784 -1.961915 1.807587 1.751098 3.407646 1.037389 9.102892 -1.366902 1.172008 -0.927615 0.703283 -0.009883 -74.734207 0.435634 22.247231 -21.711081 1.245994 12.991314 -16.980265 11.115278 -3.377475 10.468861 0.662288 -0.009715 84.277550 -10.594616 -9.603615 25.622168 -3.008324 34.936813 18.234638 -5.257624 -1.740107 2.302492 1.394613 13.122821 19.771614 -1.525335 -1.871587 -19.199120 -22.123955 -19.976660 -0.860476 -15.037041 -22.130148 21.392237 1.421311 1.958616 -7.597447 -27.669367 7.899230 
-0.059730 48.852867 -0.004600 -7.928984 0.692770 -2.363344 22.207218 -1.835707 0.908363 -17.490774 -1.874068 1.807590 1.804197 3.388031 1.115375 8.864309 -1.474258 1.250340 -1.035050 0.625176 -0.009870 -74.921501 0.608074 20.553555 -21.621429 1.269827 13.302910 -16.828470 10.908321 -3.285412 10.498151 0.623221 -0.009708 84.317497 -10.574198 -10.151909 25.385841 -2.943874 34.094429 18.125118 -5.236070 -1.711939 2.271442 1.413166 13.145786 19.760424 -1.544630 -1.874024 -19.167128 -22.077759 -19.941074 -0.842638 -15.011212 -22.119963 21.304571 1.421224 1.944324 -7.567577 -27.609781 7.902356 
-0.056686 48.858292 -0.012273 -7.889052 0.663484 -2.392644 22.216377 -1.796629 0.947719 -17.426142 -1.981425 1.817346 1.720986 3.475846 1.164708 8.774434 -1.483982 1.318676 -1.025279 0.654472 -0.009875 -74.914162 0.643742 19.355045 -21.631592 1.206251 12.629887 -16.560678 10.754281 -3.184450 10.390737 0.662301 -0.009718 84.293671 -10.480960 -10.342607 25.237103 -2.907517 33.549618 18.115595 -5.245643 -1.714073 2.252600 1.423299 13.177146 19.712896 -1.525244 -1.868496 -19.181499 -22.086487 -19.963116 -0.842087 -14.953231 -22.106119 21.137684 1.431021 1.937349 -7.481072 -27.626310 7.942749 
-0.053640 48.863705 -0.019946 -7.839737 0.643956 -2.421942 22.226057 -1.747793 0.977002 -17.371004 -2.079021 1.827095 1.648509 3.573406 1.223199 8.684557 -1.503472 1.377248 -1.015507 0.693532 -0.009882 -74.914612 0.677530 18.155926 -21.646189 1.146720 11.948350 -16.293282 10.599567 -3.086772 10.283322 0.711147 -0.009729 84.260361 -10.379973 -10.534359 25.091896 -2.864488 33.013390 18.096550 -5.264792 -1.718332 2.221799 1.440719 13.199973 19.674095 -1.525199 -1.856711 -19.225630 -22.094095 -19.967232 -0.842082 -14.914845 -22.093678 20.971397 1.431038 1.928746 -7.391543 -27.656454 7.995916 
-0.054659 48.868610 -0.024316 -7.811001 0.634157 -2.509828 22.254120 -1.767306 1.006284 -17.363930 -2.118017 1.866486 1.722497 3.661196 1.282298 8.475442 -1.581521 1.455602 -0.956928 0.605632 -0.009867 -74.740608 0.663957 17.265757 -21.633644 1.039508 10.719798 -16.186714 10.652227 -3.080379 10.312631 0.779502 -0.009740 84.163521 -10.487291 -10.625523 25.134996 -2.843968 32.693863 18.008049 -5.258133 -1.707257 2.219955 1.449631 13.279540 19.596260 -1.528387 -1.833638 -19.153021 -22.148884 -19.970013 -0.880463 -14.908694 -21.991854 20.912212 1.444254 1.918145 -7.339545 -27.671993 8.031366 
-0.055678 48.873512 -0.028687 -7.782233 0.624358 -2.597715 22.282335 -1.777054 1.035567 -17.356218 -2.147263 1.895762 1.787771 3.758724 1.351159 8.256371 -1.669331 1.523929 -0.888584 0.517730 -0.009852 -74.560547 0.658815 16.387478 -21.616926 0.935745 9.493889 -16.090050 10.704377 -3.075614 10.341941 0.857622 -0.009752 84.066681 -10.584230 -10.707638 25.174311 -2.811550 32.383472 17.919273 -5.242160 -1.692322 2.225148 1.453726 13.368019 19.526905 -1.534953 -1.840765 -19.047564 -22.161829 -19.925386 -0.928633 -14.890593 -21.898308 20.863176 1.440714 1.924756 -7.284350 -27.694597 8.056874 
-0.065800 48.873508 -0.041006 -7.704048 0.604809 -2.675838 22.250969 -1.806317 1.084369 -17.239866 -2.117921 1.944558 1.644328 3.778188 1.390139 8.213983 -1.727857 1.582489 -0.898351 0.507966 -0.009851 -74.518150 0.505567 15.495327 -21.527748 0.860113 8.639707 -16.130775 10.721041 -3.088199 10.263820 0.877166 -0.009758 83.967117 -10.516006 -10.973693 25.163498 -2.829671 32.561180 17.848230 -5.129635 -1.659556 2.146282 1.482464 13.453253 19.487402 -1.534864 -1.848426 -19.017870 -22.190607 -19.912355 -1.007948 -14.817734 -21.818705 20.795048 1.440865 1.911509 -7.345936 -27.656996 8.024892 
-0.075920 48.873508 -0.053328 -7.635106 0.575506 -2.753963 22.219742 -1.825815 1.133171 -17.113699 -2.088580 1.993355 1.501314 3.787871 1.438862 8.161989 -1.776615 1.641350 -0.908118 0.498202 -0.009849 -74.479012 0.362192 14.605347 -21.437538 0.793119 7.785704 -16.181433 10.737164 -3.102624 10.185699 0.906476 -0.009765 83.877647 -10.436125 -11.233090 25.160931 -2.842807 32.736691 17.776161 -5.010720 -1.614824 2.066119 1.509577 13.518726 19.448601 -1.534817 -1.836638 -18.986773 -22.204803 -19.901709 -1.075249 -14.753551 -21.760260 20.727201 1.431028 1.906370 -7.401565 -27.633957 8.004612 
-0.089983 48.872032 -0.083439 -7.493305 0.468205 -2.763739 22.199970 -1.747669 1.191746 -17.105701 -2.098289 2.032391 1.385440 3.885272 1.566187 8.135169 -1.864327 1.787751 -0.917856 0.664219 -0.009877 -74.623604 0.228931 13.552501 -21.287718 0.755667 7.381978 -16.089293 10.506812 -3.019776 10.068507 0.877199 -0.009764 83.868103 -10.371259 -11.601830 25.104361 -2.844338 32.776901 17.758680 -5.085672 -1.636859 1.844838 1.668870 13.533743 19.606291 -1.525087 -1.833651 -19.003870 -22.211678 -19.918732 -1.182192 -14.608328 -21.762806 20.637543 1.450452 1.914670 -7.446971 -27.597752 7.998820 
-0.104047 48.870552 -0.113547 -7.361234 0.360905 -2.773444 22.180357 -1.669524 1.250323 -17.097010 -2.098251 2.061668 1.260236 3.982640 1.694190 8.107902 -1.952013 1.934467 -0.927591 0.840002 -0.009906 -74.774338 0.098683 12.502717 -21.140842 0.722313 6.986732 -15.987647 10.276742 -2.935836 9.941548 0.847923 -0.009762 83.859039 -10.296880 -11.971611 25.053091 -2.854147 32.817589 17.731428 -5.160923 -1.657963 1.618541 1.803475 13.556226 19.771273 -1.525245 -1.881301 -19.021383 -22.184143 -19.918955 -1.299566 -14.450797 -21.764154 20.540703 1.440798 1.898326 -7.469092 -27.538887 7.979875 
